<svg data-name="Layer 1" viewBox="0 0 168 168" xmlns="http://www.w3.org/2000/svg"><circle cx="2" cy="150" r="2" fill="#25235f" class="fill-2d4356"></circle><path d="M11 148H8a2 2 0 0 0 0 4h3a2 2 0 0 0 0-4ZM160 148h-3a2 2 0 0 0 0 4h3a2 2 0 0 0 0-4Z" fill="#25235f" class="fill-2d4356"></path><circle cx="166" cy="150" r="2" fill="#25235f" class="fill-2d4356"></circle><path d="M118.154 156h-8.308a2.006 2.006 0 0 0 0 4h8.308a2.006 2.006 0 0 0 0-4ZM58.154 156h-8.308a2.006 2.006 0 0 0 0 4h8.308a2.006 2.006 0 0 0 0-4ZM104 156H64a2 2 0 0 0 0 4h15.94v2H72a2 2 0 0 0 0 4h25a2 2 0 0 0 0-4h-8.94v-2H104a2 2 0 0 0 0-4Z" fill="#fbb040" class="fill-0bceb2"></path><circle cx="2" cy="150" r="2" fill="#25235f" class="fill-2d4356"></circle><path d="M11 148H8a2 2 0 0 0 0 4h3a2 2 0 0 0 0-4ZM160 148h-3a2 2 0 0 0 0 4h3a2 2 0 0 0 0-4Z" fill="#25235f" class="fill-2d4356"></path><circle cx="166" cy="150" r="2" fill="#25235f" class="fill-2d4356"></circle><path d="M118.154 156h-8.308a2.006 2.006 0 0 0 0 4h8.308a2.006 2.006 0 0 0 0-4ZM58.154 156h-8.308a2.006 2.006 0 0 0 0 4h8.308a2.006 2.006 0 0 0 0-4ZM104 156H64a2 2 0 0 0 0 4h15.94v2H72a2 2 0 0 0 0 4h25a2 2 0 0 0 0-4h-8.94v-2H104a2 2 0 0 0 0-4Z" fill="#fbb040" class="fill-0bceb2"></path><path d="M101 98a4.005 4.005 0 0 0-4-4h-6a4.005 4.005 0 0 0-4 4v6a4.005 4.005 0 0 0 4 4h6a4.005 4.005 0 0 0 4-4Zm-10 6v-6h6l.002 6Z" fill="#25235f" class="fill-2d4356"></path><path d="M119 98a4.005 4.005 0 0 0-4-4h-6a4.005 4.005 0 0 0-4 4v6a4.005 4.005 0 0 0 4 4h6a4.005 4.005 0 0 0 4-4Zm-10 6v-6h6l.002 6ZM101 116a4.005 4.005 0 0 0-4-4h-6a4.005 4.005 0 0 0-4 4v6a4.005 4.005 0 0 0 4 4h6a4.005 4.005 0 0 0 4-4Zm-10 6v-6h6l.002 6ZM73 108h6a4.005 4.005 0 0 0 4-4v-6a4.005 4.005 0 0 0-4-4h-6a4.005 4.005 0 0 0-4 4v6a4.005 4.005 0 0 0 4 4Zm0-10h6l.002 6H73Z" fill="#fbb040" class="fill-0bceb2"></path><path d="M73 126h6a4.005 4.005 0 0 0 4-4v-6a4.005 4.005 0 0 0-4-4h-6a4.005 4.005 0 0 0-4 4v6a4.005 4.005 0 0 0 4 4Zm0-10h6l.002 6H73ZM119 116a4.005 4.005 0 0 0-4-4h-6a4.005 4.005 0 0 0-4 4v6a4.005 4.005 0 0 0 4 4h6a4.005 4.005 0 0 0 4-4Zm-10 6v-6h6l.002 6ZM97 130h-6a4.005 4.005 0 0 0-4 4v6a4.005 4.005 0 0 0 4 4h6a4.005 4.005 0 0 0 4-4v-6a4.005 4.005 0 0 0-4-4Zm-6 10v-6h6l.002 6Z" fill="#25235f" class="fill-2d4356"></path><path d="M73 144h6a4.005 4.005 0 0 0 4-4v-6a4.005 4.005 0 0 0-4-4h-6a4.005 4.005 0 0 0-4 4v6a4.005 4.005 0 0 0 4 4Zm0-10h6l.002 6H73ZM115 130h-6a4.005 4.005 0 0 0-4 4v6a4.005 4.005 0 0 0 4 4h6a4.005 4.005 0 0 0 4-4v-6a4.005 4.005 0 0 0-4-4Zm-6 10v-6h6l.002 6Z" fill="#fbb040" class="fill-0bceb2"></path><path d="M112 76H76a7 7 0 0 0 0 14h36a7 7 0 0 0 0-14Zm0 10H76a3 3 0 0 1 0-6h36a3 3 0 0 1 0 6ZM43 144h16a6.007 6.007 0 0 0 6-6V56a6.007 6.007 0 0 0-6-6H43a6.007 6.007 0 0 0-6 6v82a6.007 6.007 0 0 0 6 6Zm-2-88a2.002 2.002 0 0 1 2-2h16a2.002 2.002 0 0 1 2 2v82a2.002 2.002 0 0 1-2 2H43a2.002 2.002 0 0 1-2-2Z" fill="#25235f" class="fill-2d4356"></path><path d="M47 62h8a2 2 0 0 0 0-4h-8a2 2 0 0 0 0 4ZM47 136h8a2 2 0 0 0 0-4h-8a2 2 0 0 0 0 4Z" fill="#fbb040" class="fill-0bceb2"></path><path d="M86 43h16a2 2 0 0 0 0-4H86a2 2 0 0 0 0 4Z" fill="#25235f" class="fill-2d4356"></path><path d="M102 47H86a2 2 0 0 0 0 4h16a2 2 0 0 0 0-4Z" fill="#fbb040" class="fill-0bceb2"></path><path d="M102 55H86a2 2 0 0 0 0 4h16a2 2 0 0 0 0-4Z" fill="#25235f" class="fill-2d4356"></path><path d="M150.721 148H126.65a5.96 5.96 0 0 0 .35-2V66a6.007 6.007 0 0 0-6-6h-8v-4h22.333c.055 0 .106-.012.16-.016.063.001.128.01.192.01a9.705 9.705 0 0 0 3.638-.666c5.735-2.34 5.66-8.796 5.622-12.265-.028-2.44.055-16.786.055-17.063a2 2 0 0 0-2-2h-27a8.007 8.007 0 0 0-7.93 7H84a8.01 8.01 0 0 0-8 8v21h-7v4h7v4h-5a2 2 0 0 0 0 4h46a2 2 0 0 0 0-4h-4v-4h8a2.002 2.002 0 0 1 2 2v80a2.002 2.002 0 0 1-2 2H29a2.002 2.002 0 0 1-2-2V66a2.002 2.002 0 0 1 2-2h4v-4h-4a6.007 6.007 0 0 0-6 6v80a5.96 5.96 0 0 0 .35 2h-6.071a2.017 2.017 0 1 0 0 4H150.72a2.017 2.017 0 1 0 0-4ZM109 39v29H80V39a4.005 4.005 0 0 1 4-4h26.082A7.94 7.94 0 0 0 109 39Zm4 13V39a4.005 4.005 0 0 1 4-4h2c1.7 0 2.749.696 4.088 4.588L126.908 52Zm-.858-21A3.996 3.996 0 0 1 116 28h24.85c.036 6.333.067 12.662.095 15.108.053 4.673-.43 7.414-3.132 8.516a7.227 7.227 0 0 1-5.37-.355 3.61 3.61 0 0 1-2.01-2.066A96.566 96.566 0 0 0 128.795 44H135a2 2 0 0 0 0-4h-7.579c-.093-.28-1.392-3.973-1.968-5H135a2 2 0 0 0 0-4ZM25.305 36a3 3 0 1 0-3-3 3.003 3.003 0 0 0 3 3Zm0-4.5a1.5 1.5 0 1 1-1.5 1.5 1.501 1.501 0 0 1 1.5-1.5ZM164.305 49a2 2 0 1 0 2 2 2.002 2.002 0 0 0-2-2Zm0 3a1 1 0 1 1 1-1 1.001 1.001 0 0 1-1 1ZM9.305 3a2 2 0 1 0 2 2 2.002 2.002 0 0 0-2-2Zm0 3a1 1 0 1 1 1-1 1.001 1.001 0 0 1-1 1ZM160.305 2a2 2 0 1 0 2 2 2.002 2.002 0 0 0-2-2Zm0 3a1 1 0 1 1 1-1 1.001 1.001 0 0 1-1 1Z" fill="#25235f" class="fill-2d4356"></path><path d="M63.305 43a2 2 0 1 0-2 2 2.002 2.002 0 0 0 2-2Zm-3 0a1 1 0 1 1 1 1 1.001 1.001 0 0 1-1-1Z" fill="#25235f" class="fill-2d4356"></path><path d="m10.888 69.011 1.487-1.955-.939-.532-.955 2.19h-.031l-.97-2.175-.955.548 1.471 1.909v.031l-2.301-.297v1.064l2.316-.297v.031l-1.486 1.908.891.564 1.018-2.206h.031l.939 2.19.986-.563-1.502-1.878v-.031l2.362.282V68.73l-2.362.312v-.031zM57.081 4.067l-.856 1.099.514.324.586-1.27h.017l.541 1.261.568-.324-.865-1.082v-.018l1.36.163v-.613l-1.36.18v-.018l.856-1.126-.54-.306-.55 1.261h-.018l-.559-1.253-.55.316.847 1.099v.018l-1.325-.171v.613l1.334-.171v.018zM153.305 32.713V31.67l-2.317.307v-.031l1.458-1.918-.921-.522-.936 2.148h-.031l-.951-2.133-.937.538 1.443 1.872v.031l-2.257-.292v1.043l2.272-.291v.031l-1.458 1.872.875.553.998-2.165h.03l.921 2.149.967-.552-1.473-1.842v-.031l2.317.276zM96.748 13.586l1.258-1.655-.795-.45-.807 1.853h-.027l-.82-1.84-.809.464 1.245 1.615v.026l-1.946-.251v.9l1.959-.252v.027l-1.258 1.615.755.477.861-1.867h.026l.795 1.853.834-.476-1.271-1.589v-.027l1.998.239v-.9l-1.998.264v-.026z" fill="#fbb040" class="fill-0bceb2"></path></svg>