<?xml version="1.0"?>
<svg xmlns="http://www.w3.org/2000/svg" xmlns:xlink="http://www.w3.org/1999/xlink" xmlns:svgjs="http://svgjs.com/svgjs" version="1.1" width="512" height="512" x="0" y="0" viewBox="0 0 496 496" style="enable-background:new 0 0 512 512" xml:space="preserve" class=""><g><path xmlns="http://www.w3.org/2000/svg" d="m288 0c-48.519531 0-88 39.480469-88 88 0 17.257812 4.945312 33.726562 14.28125 48h147.445312c9.328126-14.28125 14.273438-30.742188 14.273438-48 0-48.519531-39.480469-88-88-88zm0 0" fill="#ff468dff" data-original="#ff468dff" class=""/><path xmlns="http://www.w3.org/2000/svg" d="m352 224h-128c-8.839844 0-16 7.160156-16 16v24h16c13.257812 0 24 10.742188 24 24s-10.742188 24-24 24h-16v72c0 8.839844 7.160156 16 16 16h128c8.839844 0 16-7.160156 16-16v-144c0-8.839844-7.160156-16-16-16zm0 0" fill="#00000000" data-original="#ff468dff" class=""/><path xmlns="http://www.w3.org/2000/svg" d="m360 128h-64v-1.472656c9.289062-3.3125 16-12.113282 16-22.527344 0-13.230469-10.769531-24-24-24-4.40625 0-8-3.585938-8-8s3.59375-8 8-8 8 3.585938 8 8h16c0-10.414062-6.710938-19.214844-16-22.527344v-17.472656h-16v17.472656c-9.289062 3.3125-16 12.113282-16 22.527344 0 13.230469 10.769531 24 24 24 4.40625 0 8 3.585938 8 8s-3.59375 8-8 8-8-3.585938-8-8h-16c0 10.414062 6.710938 19.214844 16 22.527344v1.472656h-64c-22.054688 0-40 17.945312-40 40v88h-47c-12.503906 0-24.855469 3.28125-35.71875 9.488281l-39.410156 22.511719h-53.871094v144h69.574219l29.859375 19.902344c11.878906 7.921875 25.6875 12.097656 39.941406 12.097656h37.433594c3.71875 18.230469 19.871094 32 39.191406 32h144c22.054688 0 40-17.945312 40-40v-288c0-22.054688-17.945312-40-40-40zm-144 16h144c13.230469 0 24 10.769531 24 24v24h-192v-24c0-13.230469 10.769531-24 24-24zm-24 64h192v208h-192v-96h32c17.648438 0 32-14.351562 32-32s-14.351562-32-32-32h-32zm-83.6875 230.59375-33.886719-22.59375h-58.425781v-112h42.128906l43.085938-24.625c8.449218-4.824219 18.058594-7.375 27.785156-7.375h95c8.824219 0 16 7.175781 16 16s-7.175781 16-16 16h-104v8c0 22.054688-17.945312 40-40 40v16c28.167969 0 51.535156-20.894531 55.433594-48h40.566406v128h-36.625c-11.085938 0-21.832031-3.246094-31.0625-9.40625zm251.6875 41.40625h-144c-13.230469 0-24-10.769531-24-24v-24h192v24c0 13.230469-10.769531 24-24 24zm0 0" fill="#000000ff" data-original="#000000" class=""/><path xmlns="http://www.w3.org/2000/svg" d="m264 160h48v16h-48zm0 0" fill="#000000ff" data-original="#000000" class=""/><path xmlns="http://www.w3.org/2000/svg" d="m272 448h32v16h-32zm0 0" fill="#000000ff" data-original="#000000" class=""/><path xmlns="http://www.w3.org/2000/svg" d="m328 160h16v16h-16zm0 0" fill="#000000ff" data-original="#000000" class=""/><path xmlns="http://www.w3.org/2000/svg" d="m232 160h16v16h-16zm0 0" fill="#000000ff" data-original="#000000" class=""/><path xmlns="http://www.w3.org/2000/svg" d="m288 336c-4.40625 0-8-3.585938-8-8h-16c0 10.414062 6.710938 19.214844 16 22.527344v17.472656h16v-17.472656c9.289062-3.3125 16-12.113282 16-22.527344 0-13.230469-10.769531-24-24-24-4.40625 0-8-3.585938-8-8s3.59375-8 8-8 8 3.585938 8 8h16c0-10.414062-6.710938-19.214844-16-22.527344v-17.472656h-16v17.472656c-9.289062 3.3125-16 12.113282-16 22.527344 0 13.230469 10.769531 24 24 24 4.40625 0 8 3.585938 8 8s-3.59375 8-8 8zm0 0" fill="#ff468dff" data-original="#000000" class=""/></g></svg>
