<svg xmlns="http://www.w3.org/2000/svg" width="62" height="62" viewBox="0 0 62 62">
  <g id="storefront" transform="translate(-1 -1)">
    <path id="Path_840" data-name="Path 840" d="M53,59H11a2,2,0,0,1-2-2V33a2,2,0,0,1,2-2H53a2,2,0,0,1,2,2V57A2,2,0,0,1,53,59Z" fill="#ffffff"/>
    <path id="Path_841" data-name="Path 841" d="M54,19H46v6h8Zm-2,4H48V21h4Z" fill="#25235f"/>
    <path id="Path_842" data-name="Path 842" d="M58,27V16.816A3,3,0,0,0,60,14V12L56.744,1H31.256L28.042,11.713,28,14a3,3,0,0,0,2,2.816V27H21.3a11,11,0,1,0-12.61,0H6a5.006,5.006,0,0,0-5,5V58a5.006,5.006,0,0,0,5,5H58a5.006,5.006,0,0,0,5-5V32A5.006,5.006,0,0,0,58,27ZM57,15H51a1,1,0,0,1-1-1V13h8v1A1,1,0,0,1,57,15Zm-9-1a1,1,0,0,1-1,1H41a1,1,0,0,1-1-1V13h8ZM38,14a1,1,0,0,1-1,1H31a1,1,0,0,1-1-1V13h8Zm2.1-3,.8-8h6.19l.8,8Zm17.551,0H49.9l-.8-8h6.151ZM32.744,3h6.151l-.8,8H30.344ZM32,17h5a2.981,2.981,0,0,0,2-.78A2.976,2.976,0,0,0,41,17h6a2.981,2.981,0,0,0,2-.78A2.976,2.976,0,0,0,51,17h5V27H44V19H34v8H32ZM42,27H36V21h6ZM6,18a9,9,0,1,1,9,9A9.01,9.01,0,0,1,6,18ZM61,58a3,3,0,0,1-3,3H6a3,3,0,0,1-3-3V32a3,3,0,0,1,3-3H58a3,3,0,0,1,3,3Z" fill="#25235f"/>
    <path id="Path_843" data-name="Path 843" d="M57,40h2V50H57Z" fill="#25235f"/>
    <path id="Path_844" data-name="Path 844" d="M5,48H7v2H5Z" fill="#25235f"/>
    <path id="Path_845" data-name="Path 845" d="M5,40H7v6H5Z" fill="#25235f"/>
    <path id="Path_846" data-name="Path 846" d="M37,41H21.725l-.489-3.425A3.016,3.016,0,0,0,18.266,35H16a3,3,0,0,0,0,6h3.7l1.175,8.222A3,3,0,1,0,25,52a2.966,2.966,0,0,0-.184-1h6.369A2.943,2.943,0,0,0,31,52a3,3,0,1,0,4.246-2.721l1.716-6.005ZM16,39a1,1,0,0,1,0-2h2.266a1,1,0,0,1,.989.858L19.418,39Zm18.96,4-1.715,6H22.867l-.857-6ZM23,52a1,1,0,1,1-1-1A1,1,0,0,1,23,52Zm11,1a1,1,0,1,1,1-1A1,1,0,0,1,34,53Z" fill="#25235f"/>
    <path id="Path_847" data-name="Path 847" d="M16,15a1,1,0,0,1,1,1h2a3,3,0,0,0-3-3V11H14v2H11v3a3,3,0,0,0,3,3h2a1,1,0,0,1,1,1v1H14a1,1,0,0,1-1-1H11a3,3,0,0,0,3,3v2h2V23h3V20a3,3,0,0,0-3-3H14a1,1,0,0,1-1-1V15Z" fill="#fbb040"/>
    <path id="Path_848" data-name="Path 848" d="M39,47H51V35H39Zm2-10h8v8H41Z" fill="#25235f"/>
    <path id="Path_849" data-name="Path 849" d="M49,49h2v6H49Z" fill="#25235f"/>
    <path id="Path_850" data-name="Path 850" d="M45,49h2v6H45Z" fill="#25235f"/>
    <path id="Path_851" data-name="Path 851" d="M41,49h2v6H41Z" fill="#25235f"/>
  </g>
</svg>