<?xml version="1.0"?>
<svg xmlns="http://www.w3.org/2000/svg" xmlns:xlink="http://www.w3.org/1999/xlink" xmlns:svgjs="http://svgjs.com/svgjs" version="1.1" width="512" height="512" x="0" y="0" viewBox="0 0 497 497.112" style="enable-background:new 0 0 512 512" xml:space="preserve" class=""><g><g xmlns="http://www.w3.org/2000/svg" fill="#f0bc5e"><path d="m48.054688 392h128v32h-128zm0 0" fill="#fbb040" data-original="#f0bc5e" class=""/><path d="m176.054688 272h-128c-8.839844 0-16-7.160156-16-16v-144c0-8.839844 7.160156-16 16-16h128c8.839843 0 16 7.160156 16 16v144c0 8.839844-7.160157 16-16 16zm0 0" fill="#ffffff" data-original="#f0bc5e" class=""/><path d="m432.289062 496c-35.632812 0-64.234374-28.601562-64.234374-63.769531 0-12.140625 3.449218-23.972657 9.96875-34.230469l54.03125-84.894531 54.035156 84.894531c6.519531 10.257812 9.964844 22.097656 9.964844 34.230469 0 35.167969-28.597657 63.769531-63.765626 63.769531zm0 0" fill="#fbb040" data-original="#f0bc5e" class=""/></g><path xmlns="http://www.w3.org/2000/svg" d="m480.054688 240h-16v-40c0-30.871094-25.125-56-56-56h-57.46875c-2.417969-6.777344-7.753907-12.113281-14.53125-14.527344v-49.472656h8c13.234374 0 24-10.769531 24-24s-10.765626-24-24-24h-80c-13.230469 0-24 10.769531-24 24s10.769531 24 24 24h8v48h-48v-88c0-22.054688-17.941407-40-40-40h-144c-22.054688 0-40.0000005 17.945312-40.0000005 40v288c0 13.015625 6.3437505 24.488281 16.0000005 31.792969v116.949219l37.320312 20.371093 29.304688-16 29.320312 16 29.320312-16.007812 29.367188 16 37.367188-20.351563v-116.960937c9.65625-7.3125 16-18.785157 16-31.792969v-104h104c10.417968 0 19.21875-6.710938 22.53125-16h49.46875v32h-16c-8.824219 0-16 7.175781-16 16v16c0 8.824219 7.175781 16 16 16h96c8.824218 0 16-7.175781 16-16v-16c0-8.824219-7.175782-16-16-16zm-224-184c0-4.414062 3.585937-8 8-8h80c4.417968 0 8 3.585938 8 8s-3.582032 8-8 8h-80c-4.414063 0-8-3.585938-8-8zm32 24h32v48h-32zm-248-64h144c13.234374 0 24 10.769531 24 24v24h-192v-24c0-13.230469 10.769531-24 24-24zm152 451.246094-21.367188 11.640625-29.367188-16-29.320312 15.992187-29.320312-16-29.304688 16-21.320312-11.632812v-100.054688c2.585937.527344 5.265624.808594 8 .808594h144c2.738281 0 5.417968-.28125 8-.808594zm-8-115.246094h-144c-13.230469 0-24-10.769531-24-24v-24h192v24c0 13.230469-10.765626 24-24 24zm152-152c0 4.414062-3.582032 8-8 8h-104v-48h-16v128h-192v-208h192v64h120c4.417968 0 8 3.585938 8 8zm64-8h-48v-32h56c22.058593 0 40 17.945312 40 40v40h-32v-32c0-8.824219-7.175782-16-16-16zm80 80h-96v-16h96zm0 0" fill="#25235f" data-original="#000000" class=""/><path xmlns="http://www.w3.org/2000/svg" d="m88.054688 32h48v16h-48zm0 0" fill="#25235f" data-original="#000000" class=""/><path xmlns="http://www.w3.org/2000/svg" d="m96.054688 320h32v16h-32zm0 0" fill="#25235f" data-original="#000000" class=""/><path xmlns="http://www.w3.org/2000/svg" d="m152.054688 32h16v16h-16zm0 0" fill="#25235f" data-original="#000000" class=""/><path xmlns="http://www.w3.org/2000/svg" d="m56.054688 32h16v16h-16zm0 0" fill="#25235f" data-original="#000000" class=""/><path xmlns="http://www.w3.org/2000/svg" d="m112.054688 160c4.417968 0 8 3.585938 8 8h16c0-10.414062-6.710938-19.214844-16-22.527344v-17.472656h-16v17.472656c-9.285157 3.3125-16 12.113282-16 22.527344 0 13.230469 10.769531 24 24 24 4.417968 0 8 3.585938 8 8s-3.582032 8-8 8c-4.414063 0-8-3.585938-8-8h-16c0 10.414062 6.714843 19.214844 16 22.527344v17.472656h16v-17.472656c9.289062-3.3125 16-12.113282 16-22.527344 0-13.230469-10.765626-24-24-24-4.414063 0-8-3.585938-8-8s3.585937-8 8-8zm0 0" fill="#25235f" data-original="#000000" class=""/><path xmlns="http://www.w3.org/2000/svg" d="m48.054688 384h128v16h-128zm0 0" fill="#25235f" data-original="#000000" class=""/><path xmlns="http://www.w3.org/2000/svg" d="m48.054688 416h128v16h-128zm0 0" fill="#25235f" data-original="#000000" class=""/><path xmlns="http://www.w3.org/2000/svg" d="m438.808594 391.894531-13.503906-8.589843-20.289063 31.871093c-3.238281 5.121094-4.960937 11.015625-4.960937 17.054688 0 17.523437 14.25 31.769531 31.769531 31.769531h.472656l-.472656-16c-8.695313 0-15.769531-7.070312-15.769531-15.769531 0-3 .847656-5.925781 2.472656-8.46875zm0 0" fill="#25235f" data-original="#000000" class=""/></g></svg>
